<svg width="150" height="150" viewBox="0 0 150 150" fill="none" xmlns="http://www.w3.org/2000/svg" style="width: 200px; height: 200px; transform: rotateY(180deg);"><style>
     .chatting10-a {animation:chatting10-bounce 1s ease-in-out infinite;}
     .chatting10-b {animation:chatting10-bounce 1s ease-in-out 200ms infinite;}
     .chatting10-c {animation:chatting10-bounce 1s ease-in-out 400ms infinite;}
     @keyframes chatting10-bounce {
         0%{transform:translate3d(0, 2px, 0);}
         50%{transform:translate3d(0, -2px, 0);}
         100%{transform:translate3d(0, 2px, 0);}
     }
     @media (prefers-reduced-motion: reduce) {
         .chatting10-a, .chatting10-b, .chatting10-c {
             animation: none;
         }
     }
    </style><path class="fillCls5" d="M62.1183 24.7045C62.2827 20.8219 59.7366 17.5609 56.4314 17.4209C53.1262 17.281 50.3136 20.3151 50.1492 24.1978C49.9848 28.0805 52.5309 31.3415 55.8361 31.4814C59.1413 31.6213 61.9539 28.5872 62.1183 24.7045Z" fill="rgba(0,0,0,1)" stroke-width="2.0px" style="animation-duration: 1s;"></path><path class="fillCls2" d="M53.3859 36.8231C53.3859 36.8231 50.5263 41.2079 53.3859 43.3049C56.2455 45.402 60.8209 46.1645 60.8209 46.1645L46.9041 51.1212L35.6562 45.0207C35.6562 45.0207 39.4691 44.2581 40.2316 39.6827C40.9942 35.1073 39.2784 24.6221 39.2784 24.6221H49.9543L53.3859 36.8231Z" fill="#FBD482" stroke-width="2.0px" style="animation-duration: 1s;"></path><path class="fillCls1" d="M60.8219 17.9496C60.8219 17.9496 60.6312 32.2477 53.9588 39.3014C53.9588 39.3014 45.3799 42.3517 42.711 30.7226C40.042 19.0935 44.6174 14.5181 44.6174 14.5181L60.8219 17.9496Z" fill="#FFDE99" stroke-width="2.0px" style="animation-duration: 1s;"></path><path class="fillCls7" d="M38.7067 22.3344C38.7067 22.3344 48.8107 23.097 54.7206 19.0935L51.289 21.5719C51.289 21.5719 59.1053 21.814 60.8211 18.3577L60.68 20.3746C60.68 20.3746 68.4467 19.8561 68.2561 15.0901C68.0655 10.324 58.3428 8.98955 58.3428 8.98955C58.3428 8.98955 59.8679 4.22352 52.6235 5.17673C45.3792 6.12993 47.0949 7.27378 44.8072 6.32057C42.5195 5.36737 40.2318 2.50775 37.9441 4.98609C35.6564 7.46442 29.3653 14.5181 37.9441 22.3344" fill="#FB8F8F" stroke-width="2.0px" style="animation-duration: 1s;"></path><path class="fillCls5" d="M38.7072 31.8664C42.1817 31.8664 44.9983 28.2816 44.9983 23.8595C44.9983 19.4374 42.1817 15.8525 38.7072 15.8525C35.2327 15.8525 32.416 19.4374 32.416 23.8595C32.416 28.2816 35.2327 31.8664 38.7072 31.8664Z" fill="rgba(0,0,0,1)" stroke-width="2.0px" style="animation-duration: 1s;"></path><path class="fillCls5" d="M40.7945 16.9694L38.1465 16.6396C38.1941 16.2622 38.461 8.99112 42.9449 6.52422C43.7056 6.10481 44.5863 5.95992 45.448 6.07431L47.2858 6.32023C40.4227 8.60793 40.804 16.8875 40.7945 16.9694Z" fill="rgba(0,0,0,1)" stroke-width="2.0px" style="animation-duration: 1s;"></path><path class="fillCls3" d="M37.7251 44.0162C37.7251 44.0162 47.995 50.6372 54.5034 44.0162C54.5034 44.0162 61.0119 45.4022 63.109 46.9273C65.206 48.4525 72.641 64.085 72.641 64.085L84.1253 79.6833C84.9965 80.8672 85.4083 82.3256 85.2748 83.7897C84.9203 87.6998 81.5783 92.0807 77.2164 90.3935C71.3066 88.1058 68.0657 78.0019 68.0657 78.0019L66.7312 78.5738C66.7312 78.5738 65.5873 83.1492 68.6376 89.2497C71.6878 95.3502 72.641 97.6379 72.641 97.6379C72.641 97.6379 48.239 114.796 33.5596 112.889C33.5596 112.889 26.8872 100.688 25.5527 96.4941C25.5527 96.4941 15.6393 98.9724 10.8733 93.0625C6.10727 87.1526 22.3327 48.3228 23.8369 48.0712C26.1246 47.6899 27.6497 47.118 27.6497 47.118C27.6497 47.118 35.6014 43.9648 37.7251 44.0162Z" fill="#DEF4FF" stroke-width="2.0px" style="animation-duration: 1s;"></path><path class="strokeCls1" d="M59.3914 30.0552C59.3914 30.0552 65.8713 41.6862 56.77 47.9278C47.6688 54.1694 38.6858 60.1345 43.9494 69.7085C46.0465 73.5214 53.1002 72.3775 54.572 77.094C57.7366 87.2418 55.8645 98.4 62.1557 96.6843C68.4468 94.9685 69.1141 77.9786 69.1141 77.9786" stroke="rgba(22,22,22,1)" stroke-miterlimit="10" stroke-width="2.0px" style="animation-duration: 1s;"></path><path class="fillCls4" d="M40.2702 112.657C37.9692 110.704 35.9141 107.862 37.7538 104.692C41.1853 98.7817 52.6238 86.9619 52.6238 86.9619C43.6636 93.2531 25.5527 96.494 25.5527 96.494C26.8872 100.688 33.5597 112.889 33.5597 112.889C35.6338 113.158 37.9025 113.047 40.2702 112.657Z" fill="#CAE6F9" stroke-width="2.0px" style="animation-duration: 1s;"></path><path class="fillCls8" d="M75.7888 78.6631L66.3711 78.5602C65.8183 78.5545 65.4275 78.0703 65.4961 77.4812L68.0145 56.0283C68.0831 55.4373 68.5883 54.9645 69.1392 54.9703L78.5569 55.0732C79.1098 55.0789 79.5006 55.5632 79.432 56.1522L76.9136 77.6051C76.845 78.1961 76.3417 78.6708 75.7888 78.6631Z" fill="rgba(20,86,36,1)" stroke-width="2.0px" style="animation-duration: 1s;"></path><path class="fillCls10" d="M86.554 29C80.7255 29 76 33.7255 76 39.554C76 42.4138 77.1405 45.0081 78.9858 46.9078L76.6809 49.2127H82.3018C83.6023 49.788 85.0424 50.1081 86.5574 50.1081C92.386 50.1081 97.1115 45.3826 97.1115 39.554C97.1115 33.7255 92.3826 29 86.554 29Z" fill="#8F93FB" stroke-width="2.0px" style="animation-duration: 1s;"></path><path class="fillCls9 chatting10-a" d="M91.3218 40.915C90.5697 40.915 89.96 40.3053 89.96 39.5532C89.96 38.801 90.5697 38.1913 91.3218 38.1913C92.0739 38.1913 92.6836 38.801 92.6836 39.5532C92.6836 40.3053 92.0739 40.915 91.3218 40.915Z" fill="#2C2F75" stroke-width="2.0px" style="animation-duration: 1s;"></path><path class="fillCls9 chatting10-b" d="M86.5523 40.915C85.8001 40.915 85.1904 40.3053 85.1904 39.5532C85.1904 38.801 85.8001 38.1913 86.5523 38.1913C87.3044 38.1913 87.9141 38.801 87.9141 39.5532C87.9141 40.3053 87.3044 40.915 86.5523 40.915Z" fill="#2C2F75" stroke-width="2.0px" style="animation-duration: 1s;"></path><path class="fillCls9 chatting10-c" d="M81.7886 40.915C81.0365 40.915 80.4268 40.3053 80.4268 39.5532C80.4268 38.801 81.0365 38.1913 81.7886 38.1913C82.5407 38.1913 83.1504 38.801 83.1504 39.5532C83.1504 40.3053 82.5407 40.915 81.7886 40.915Z" fill="#2C2F75" stroke-width="2.0px" style="animation-duration: 1s;"></path><path class="fillCls1" d="M50.5273 81.0521C50.5273 81.0521 50.5273 83.9117 52.6244 86.962C52.6244 86.962 59.6781 85.8181 63.4909 80.6708L67.6851 79.527L69.2559 80.6117C69.2559 80.6117 70.7353 77.6206 69.2102 73.8077L64.0629 70.1855L53.387 79.1457L50.5273 81.0521Z" fill="#FFDE99" stroke-width="2.0px" style="animation-duration: 1s;"></path><path class="fillCls1" d="M79.4099 70.0898L76.169 68.3741C76.169 68.3741 70.6404 72.3775 69.1152 72.5682C69.1152 72.5682 70.4497 75.2372 75.597 71.9963C75.597 71.9963 71.0216 74.4746 70.2591 74.4746C70.2591 74.4746 70.2591 76.7623 71.2123 77.3342L71.0026 78.5257L70.2591 79.6219C70.2591 79.6219 70.4497 80.5751 76.3596 80.0032L77.6941 80.7658L79.3908 83.4309C80.1171 84.5709 81.566 85.0171 82.8033 84.4737C84.0729 83.9171 85.3236 82.7294 85.1291 80.1938C84.7478 75.2372 82.4601 70.8524 82.6508 66.8489C82.8414 62.8455 82.6508 63.4174 82.6508 63.4174C82.6508 63.4174 80.7443 63.4174 79.9818 66.277C79.2192 69.1366 79.4099 70.0898 79.4099 70.0898Z" fill="#FFDE99" stroke-width="2.0px" style="animation-duration: 1s;"></path><path class="fillCls4" d="M50.5271 81.0521C50.5271 81.0521 34.7039 80.0988 26.125 83.3397C26.125 83.3397 29.8273 73.0604 31.463 65.6101C33.1787 57.7938 36.0383 66.9446 43.2827 73.9983C50.5271 81.0521 59.2966 75.1422 59.2966 75.1422L50.5271 81.0521Z" fill="#CAE6F9" stroke-width="2.0px" style="animation-duration: 1s;"></path><path class="fillCls6" d="M32.998 111.852C32.998 111.852 58.4048 95.497 82.9079 96.6294C84.2233 96.6905 85.3348 97.6208 85.6398 98.9019C87.4947 106.69 93.7916 133.928 94.2797 146.921L78.0752 145.967L69.115 117.371C69.115 117.369 46.2571 134.548 32.998 111.852Z" fill="rgba(254,252,0,1)" stroke-width="2.0px" style="animation-duration: 1s;"></path><path class="fillCls6" d="M140.271 140.511C128.512 122.16 112.867 104.12 112.867 104.12L86.2168 101.348C87.1586 105.374 88.5826 111.652 89.9743 118.486C98.454 119.888 106.575 119.371 106.575 119.371C109.626 130.619 126.021 142.629 126.021 142.629L140.891 141.485C140.685 141.161 140.479 140.837 140.271 140.511Z" fill="rgba(254,252,0,1)" stroke-width="2.0px" style="animation-duration: 1s;"></path></svg>