<svg width="150" height="150" viewBox="0 0 150 150" fill="none" xmlns="http://www.w3.org/2000/svg" style="width: 200px; height: 200px; transform: rotateY(0deg);"><style>
     .rocket5-rock1 {animation:rocket5-rock 3s infinite; opacity: 0;}
     .rocket5-rock2 {animation:rocket5-rock 3s 1s infinite; opacity: 0;}
     .rocket5-rock3 {animation:rocket5-rock 3s 1.3s infinite; opacity: 0;}
     .rocket5-rock4 {animation:rocket5-rock 3s 1.6s infinite; opacity: 0;}
     .rocket5-rock5 {animation:rocket5-rock 3s 2.2s infinite; opacity: 0;}
     .rocket5-rock6 {animation:rocket5-rock 3s 2.8s infinite; opacity: 0;}
     @keyframes rocket5-rock {
         0%{transform: translate3d(50px, -100px, 0); opacity: 0;}
         20%{opacity: 1;}
         100%{transform: translate3d(-200px, 200px, 0); opacity: 1;}
     }
     @media (prefers-reduced-motion: reduce) {
         .rocket5-rock1, .rocket5-rock2, .rocket5-rock3, .rocket5-rock4, .rocket5-rock5, .rocket5-rock6  {
             animation: none;
         }
     }

     .rocket5-flame1 {animation:rocket5-flame1 300ms infinite linear; transform-origin: 29px 119px;}
     .rocket5-flame2 {animation:rocket5-flame2 400ms infinite linear; transform-origin: 29px 119px;}
     @keyframes rocket5-flame1 {
         0%{transform:scale(1);}
         50%{transform:scale(1.3);}
     }
     @keyframes rocket5-flame2 {
         0%{transform:scale(1);}
         50%{transform:scale(1.2);}
     }
     @media (prefers-reduced-motion: reduce) {
         .rocket5-flame1, rocket5-flame2 {
             animation: none;
         }
     }

     .rocket5-move {animation:rocket5-move 3s infinite;}
     @keyframes rocket5-move {
         0%{transform: translate3d(0, 2px, 0);}
         50%{transform: translate3d(0, -10px, 0);}
         100%{transform: translate3d(0, 2px, 0);}
     }
     @media (prefers-reduced-motion: reduce) {
         .rocket5-move {
             animation: none;
         }
     }
    </style><path class="rocket5-rock4 fillCls14" d="M136.061 48.6184C135.143 51.145 137.391 54.5258 138.893 56.3999C139.548 57.217 140.73 57.2754 141.5 56.5652C142.671 55.4841 144.304 53.8802 145.243 52.534C145.675 51.9149 146.092 51.1607 146.471 50.3914C147.537 48.2261 146.105 45.7689 143.692 45.7042C140.63 45.6221 136.98 46.0912 136.061 48.6184Z" fill="#CCCCCC" stroke-width="2px" style="animation-duration: 3s;"></path><path class="rocket5-rock5 fillCls14" d="M143.3 93.4271C140.615 93.2913 138.044 96.4333 136.694 98.4199C136.105 99.2861 136.397 100.433 137.302 100.96C138.679 101.762 140.692 102.851 142.255 103.354C142.974 103.585 143.817 103.762 144.664 103.898C147.047 104.281 148.975 102.19 148.328 99.8645C147.506 96.9136 145.986 93.563 143.3 93.4271Z" fill="#CCCCCC" stroke-width="2px" style="animation-duration: 3s;"></path><ellipse class="rocket5-rock1 fillCls14" cx="15.5414" cy="5.39595" rx="4.05064" ry="2.43038" transform="rotate(15 15.5414 5.39595)" fill="#CCCCCC" style="animation-duration: 3s;"></ellipse><ellipse class="rocket5-rock3 fillCls14" cx="22.4231" cy="48.396" rx="4.05064" ry="2.43038" transform="rotate(-22.8889 22.4231 48.396)" fill="#CCCCCC" style="animation-duration: 3s;"></ellipse><ellipse class="rocket5-rock6 fillCls14" cx="111.836" cy="132.463" rx="6.29649" ry="2.43038" transform="rotate(-15 111.836 132.463)" fill="#CCCCCC" style="animation-duration: 3s;"></ellipse><path class="rocket5-rock2 fillCls14" d="M35.8376 19.2682C34.8275 21.3569 35.8376 25.2091 35.8376 25.2091C35.8376 25.2091 40.8794 27.7651 44.3439 28.7197C47.9888 29.724 53.9305 30.0699 53.9305 30.0699C53.9305 30.0699 57.5741 26.2154 57.171 23.3188C56.9455 21.699 49.314 16.3335 45.2891 15.4876C40.8513 14.555 36.7516 17.3784 35.8376 19.2682Z" fill="#CCCCCC" stroke-width="2px" style="animation-duration: 3s;"></path><g class="rocket5-move" style="animation-duration: 3s;"><path class="fillCls8" d="M92.1615 118.56C93.3426 114.678 95.3985 94.0518 95.3985 94.0518L62.5662 107C62.5662 107 63.1624 116.343 61.179 121.797C58.694 128.632 49.8561 135.699 47.4515 137.529C47.259 137.675 47.3659 137.983 47.6078 137.983C50.1828 137.977 58.702 137.891 64.416 137.057C71.7838 135.982 76.439 135.67 82.913 132.433C85.3359 131.222 86.7103 130.337 88.4621 128.271C91.0866 125.176 90.9805 122.443 92.1615 118.56Z" fill="rgba(164,41,162,1)" stroke-width="2px"></path><path class="fillCls9" d="M82.9121 132.433L89.3861 96.3639L95.3976 93.5894C95.3976 93.5894 94.6749 109.054 92.1606 118.56C91.2406 122.039 91.3605 123.398 89.3861 127.346C87.5364 131.046 82.9121 132.433 82.9121 132.433Z" fill="rgba(0,0,0,1)" stroke-width="2px"></path><path class="fillCls10" d="M60.5781 123.185C60.5781 123.185 82.1738 118.561 92.8096 115.786C92.8096 115.786 93.6879 111.149 94.1044 108.156C94.5175 105.187 94.9368 100.526 94.9368 100.526L63.4918 113.936C63.0539 115.25 62.1045 116.711 61.8508 119.023C61.667 120.697 60.5781 123.185 60.5781 123.185Z" fill="rgba(164,41,162,1)" stroke-width="2px"></path><path class="fillCls8" d="M38.8474 60.3364C42.8633 60.257 63.0466 63.8768 63.0466 63.8768L41.7669 91.8271C41.7669 91.8271 31.7173 92.6038 25.9866 93.0259C18.7784 93.5569 10.5885 97.2591 8.50386 98.2514C8.30793 98.3447 8.09354 98.1663 8.15319 97.9577C8.78217 95.7576 11.2581 87.3055 13.6772 81.9089C16.7113 75.1406 18.2788 70.7646 23.1254 65.4386C24.9392 63.4453 26.1556 62.368 28.5993 61.2494C32.2604 59.5735 34.8314 60.4159 38.8474 60.3364Z" fill="rgba(164,41,162,1)" stroke-width="2px"></path><path class="fillCls9" d="M22.8855 66.0298L58.8972 69.6965L63.2796 63.9783C63.2796 63.9783 48.2301 60.3487 38.4359 60.3055C34.8521 60.2896 33.5903 59.7992 29.2542 60.7211C25.192 61.5847 22.8855 66.0298 22.8855 66.0298Z" fill="rgba(0,0,0,1)" stroke-width="2px"></path><path class="fillCls1" d="M75.5149 112.549C68.7818 115.543 57.4802 118.098 57.4802 118.098C57.4802 118.098 49.1447 111.505 44.5323 106.538C39.8873 101.535 33.8965 92.6648 33.8965 92.6648C33.8965 92.6648 37.5312 82.2386 40.8329 76.0175C45.862 66.5414 49.4421 61.4169 57.0178 53.821C68.4133 42.3951 76.6415 36.5048 92.1622 32.087C103.485 28.8639 120.37 27.4627 122.22 29.7748C124.07 32.0869 122.49 49.6587 118.983 61.6823C115.41 73.9324 112.259 80.9331 104.185 90.8151C95.2962 101.696 88.3526 106.84 75.5149 112.549Z" fill="rgba(255,255,255,1)" stroke-width="2px"></path><path class="fillCls3" d="M46.8438 109.312L57.4796 118.098C57.4796 118.098 85.2251 113.474 100.948 94.5142C118.057 75.0923 118.982 61.6819 118.982 61.6819C118.982 61.6819 95.3678 88.5962 81.9882 95.439C68.8512 102.158 46.8438 109.312 46.8438 109.312Z" fill="rgba(255,255,255,1)" stroke-width="2px"></path><path class="fillCls13" d="M82.9124 38.0982C84.9814 37.0861 88.3842 36.5727 90.1289 36.3644C90.3504 36.338 90.4291 36.6251 90.227 36.7194L78.2364 42.3151C78.0398 42.4068 77.8695 42.1755 78.0203 42.0194C79.0418 40.9625 81.0837 38.9929 82.9124 38.0982Z" fill="#FFFFFF" stroke-width="2px"></path><path class="fillCls13" d="M115.173 30.2175C116.858 30.1806 119.199 30.8791 120.508 31.3233C120.717 31.3942 120.666 31.6808 120.446 31.6814L110.68 31.7087C110.464 31.7093 110.406 31.4311 110.608 31.3531C111.724 30.9216 113.688 30.25 115.173 30.2175Z" fill="#FFFFFF" stroke-width="2px"></path><circle class="fillCls5" cx="92.1607" cy="59.37" r="11.0982" fill="rgba(0,0,0,1)" stroke-width="2px"></circle><circle class="fillCls4" cx="92.1615" cy="59.37" r="6.47397" fill="#7489DD" stroke-width="2px"></circle><circle class="fillCls5" cx="72.7389" cy="77.8668" r="11.0982" fill="rgba(0,0,0,1)" stroke-width="2px"></circle><circle class="fillCls4" cx="72.7396" cy="77.8668" r="6.47397" fill="#7489DD" stroke-width="2px"></circle><path class="fillCls2" d="M60.2555 90.3524C53.607 82.866 44.0706 70.1909 44.0706 70.1909C44.0706 70.1909 42.477 72.9292 41.5269 74.7226C40.6006 76.4708 39.2617 79.2542 39.2617 79.2542C39.2617 79.2542 48.7374 90.7859 55.1688 97.7513C61.406 104.506 71.8162 114.029 71.8162 114.029C71.8162 114.029 74.3927 113.044 75.978 112.364C77.6555 111.644 80.1399 110.422 80.1399 110.422C80.1399 110.422 67.633 98.6597 60.2555 90.3524Z" fill="#4F9BE3" stroke-width="2px"></path><path class="fillCls2" d="M105.11 44.572C100.329 39.4257 92.1621 32.0865 92.1621 32.0865C92.1621 32.0865 95.8062 31.0972 98.1737 30.6069C100.505 30.124 104.185 29.5894 104.185 29.5894C104.185 29.5894 109.991 34.4973 113.434 38.098C117.062 41.8922 121.896 47.8091 121.896 47.8091C121.896 47.8091 121.212 52.0517 120.648 54.7455C120.076 57.4719 118.983 61.6817 118.983 61.6817C118.983 61.6817 110.965 50.8742 105.11 44.572Z" fill="#4F9BE3" stroke-width="2px"></path><path class="rocket5-flame2 fillCls12" d="M38.5833 129.312C43.9393 125.823 48.4589 114.023 41.2797 108.108C33.0761 101.349 21.2057 109.759 17.7026 116.289C12.6924 125.628 8 140.757 8 140.757C8 140.757 25.8607 137.598 38.5833 129.312Z" fill="#FF7325" stroke-width="2px"></path><path class="rocket5-flame1 fillCls11" d="M40.0839 119.958C43.4171 117.818 45.7181 110.324 42.5842 107.779C38.3179 104.313 31.7359 108.791 29.5558 112.797C26.4378 118.527 21.873 127.809 21.873 127.809C21.873 127.809 32.1662 125.041 40.0839 119.958Z" fill="#F5F4B9" stroke-width="2px"></path><path class="fillCls6" d="M50.8802 112.069L61.6422 89.8899L40.1183 99.0861L32.0469 118.56L50.8802 112.069Z" fill="rgba(105,105,105,1)" stroke-width="2px"></path><path class="fillCls7" d="M50.8802 112.069L61.6422 89.8899C61.6422 89.8899 54.5453 101.575 48.2318 107.462C42.6267 112.689 32.0469 118.56 32.0469 118.56L50.8802 112.069Z" fill="rgba(115,115,115,1)" stroke-width="2px"></path><circle class="fillCls13" cx="91.2364" cy="55.6705" r="1.84971" fill="#FFFFFF" stroke-width="2px"></circle></g></svg>