<svg width="150" height="150" viewBox="0 0 150 150" fill="none" xmlns="http://www.w3.org/2000/svg" style="width: 236px; height: 236px;"><style>
     .ufo1-rock1 {animation:ufo1-rock 3s infinite; opacity: 0;}
     .ufo1-rock2 {animation:ufo1-rock 3s 1s infinite; opacity: 0;}
     .ufo1-rock3 {animation:ufo1-rock 3s 1.3s infinite; opacity: 0;}
     .ufo1-rock4 {animation:ufo1-rock 3s 1.6s infinite; opacity: 0;}
     .ufo1-rock5 {animation:ufo1-rock 3s 2.2s infinite; opacity: 0;}
     .ufo1-rock6 {animation:ufo1-rock 3s 2.8s infinite; opacity: 0;}
     @keyframes ufo1-rock {
         0%{transform: translate3d(50px, -100px, 0); opacity: 0;}
         20%{opacity: 1;}
         100%{transform: translate3d(-200px, 200px, 0); opacity: 1;}
     }
     @media (prefers-reduced-motion: reduce) {
         .ufo1-rock1, .ufo1-rock2, .ufo1-rock3, .ufo1-rock4, .ufo1-rock5, .ufo1-rock6  {
             animation: none;
         }
     }

     .ufo1-move {animation:ufo1-move 3s infinite;}
     @keyframes ufo1-move {
         0%{transform: translate3d(0, 1.5rem, 0);}
         50%{transform: translate3d(0, -0.5rem, 0);}
         100%{transform: translate3d(0, 1.5rem, 0);}
     }
     @media (prefers-reduced-motion: reduce) {
         .ufo1-move {
             animation: none;
         }
     }
    </style><g class="ufo1-move" style="animation-duration: 1.8s;"><path class="fillCls12" d="M80.0566 54.3566L75.7901 54.8123L75.6911 39.982C75.6911 39.982 75.9037 38.4905 77.6449 38.3581C79.386 38.2256 79.9031 39.6997 79.9031 39.6997L80.0566 54.3566Z" fill="#732A63" stroke-width="2px"></path><circle class="fillCls10" cx="77.9093" cy="36.004" r="9.65732" fill="#D28248" stroke-width="2px"></circle><circle class="fillCls11" cx="77.9103" cy="38.0734" r="4.13885" fill="#FEFF67" stroke-width="2px"></circle><ellipse class="fillCls7" rx="19.9267" ry="16.8197" transform="matrix(0.997497 0.0707149 0.00285727 0.999996 75.503 103.673)" fill="#D2699D"></ellipse><path class="fillCls8" d="M95.3802 105.082C95.3188 113.946 87.6576 120.767 76.0313 120.562L82.8799 109.673L90.0992 105.779C90.0992 105.779 95.3982 102.476 95.3802 105.082Z" fill="#B64074" stroke-width="2px"></path><path class="fillCls6" d="M73.5613 111.915C53.1617 111.243 26.577 101.098 26.8245 89.6064C26.2348 72.617 56.1258 70.6753 77.1126 70.8169C97.4417 70.9542 122.9 69.6036 125.471 89.0919C126.957 100.355 95.5426 113.221 73.5613 111.915Z" fill="#5C6EB9" stroke-width="2px"></path><path class="fillCls3" d="M73.6513 107.025C53.8664 106.266 28.0436 95.9956 28.235 84.4905C28.383 75.4249 56.569 65.6596 76.9211 65.8904C96.6353 66.1138 122.404 73.1091 123.893 84.3931C125.382 95.6771 94.9728 108.426 73.6513 107.025Z" fill="#8599EA" stroke-width="2px"></path><path class="fillCls5" d="M78.5299 107.078L99.45 75.7902L98.8445 68.5643C98.8445 68.5643 122.405 73.1093 123.894 84.3933C125.383 95.6774 99.5361 106.084 78.5299 107.078Z" fill="#758BE1" stroke-width="2px"></path><ellipse class="fillCls4" cx="40.9452" cy="83.1413" rx="3.93689" ry="6.21818" transform="rotate(46.4872 40.9452 83.1413)" fill="#5C6EB9"></ellipse><ellipse class="fillCls4" cx="56.9634" cy="92.6315" rx="3.91683" ry="6.18649" transform="rotate(28.5117 56.9634 92.6315)" fill="#5C6EB9"></ellipse><ellipse class="fillCls4" cx="89.9277" cy="93.7664" rx="4.28245" ry="6.00185" transform="rotate(-1.91355 89.9277 93.7664)" fill="#5C6EB9"></ellipse><ellipse class="fillCls4" cx="109.045" cy="86.0246" rx="4.50832" ry="6.19656" transform="rotate(-52.5165 109.045 86.0246)" fill="#5C6EB9"></ellipse><path class="fillCls1" d="M76.3216 85.1026C55.0121 84.4356 52.4712 75.7254 52.4712 75.7254C52.4712 75.7254 55.5887 51.8927 77.2097 52.2834C97.313 51.7185 100.929 73.8542 100.929 73.8542C100.929 73.8542 104.008 84.6202 76.3216 85.1026Z" fill="#96C4EC" stroke-width="2px"></path><path class="fillCls14" d="M85.9676 84.3846C85.9676 84.3846 96.3966 77.4701 97.0135 70.5442C97.6979 62.8605 86.4609 53.8461 86.4609 53.8461C94.3597 56.3225 104.183 72.7689 100.01 78.051C95.5755 83.9936 85.9676 84.3846 85.9676 84.3846Z" fill="#84B3DD" stroke-width="2px"></path><ellipse class="fillCls13" cx="77.1798" cy="57.4177" rx="3.2828" ry="1.87589" transform="rotate(-2.43372 77.1798 57.4177)" fill="#F0F8FF"></ellipse><ellipse class="fillCls2" cx="62.1938" cy="70.9789" rx="4.09926" ry="5.53461" transform="rotate(25.3707 62.1938 70.9789)" fill="#458FD4"></ellipse><ellipse class="fillCls2_2" cx="76.4424" cy="74.5037" rx="4.09926" ry="4.93294" transform="rotate(4.51426 76.4424 74.5037)" fill="#458FD4"></ellipse><ellipse class="fillCls2_3" cx="90.4496" cy="71.0943" rx="4.55284" ry="5.63858" transform="rotate(-28.3832 90.4496 71.0943)" fill="#458FD4"></ellipse></g><path class="ufo1-rock4 fillCls9" d="M123.554 41.3311C122.989 42.885 124.16 44.9073 125.155 46.2438C125.781 47.0838 126.967 47.1417 127.725 46.419C128.47 45.7088 129.346 44.8084 129.887 44.0322C129.942 43.9541 129.996 43.8729 130.05 43.7891C131.352 41.757 129.812 39.1742 127.405 39.3486C125.699 39.4722 124.05 39.967 123.554 41.3311Z" fill="rgba(153,153,153,0)" stroke-width="2px" style="animation-duration: 1.8s;"></path><path class="ufo1-rock5 fillCls9" d="M142.61 66.9509C140.959 66.8673 139.37 68.5811 138.385 69.925C137.766 70.7696 138.059 71.9207 138.972 72.4329C139.87 72.9362 140.988 73.5087 141.889 73.7983C141.98 73.8275 142.073 73.8554 142.169 73.8821C144.494 74.5299 146.511 72.2996 145.637 70.0498C145.017 68.4554 144.06 67.0242 142.61 66.9509Z" fill="rgba(153,153,153,0)" stroke-width="2px" style="animation-duration: 1.8s;"></path><ellipse class="ufo1-rock1 fillCls9" cx="14.7904" cy="105.12" rx="2.79416" ry="1.6765" transform="rotate(15 14.7904 105.12)" fill="rgba(153,153,153,0)" style="animation-duration: 1.8s;"></ellipse><ellipse class="ufo1-rock3 fillCls9" cx="5.22622" cy="67.4689" rx="2.79416" ry="1.6765" transform="rotate(-22.8889 5.22622 67.4689)" fill="rgba(153,153,153,0)" style="animation-duration: 1.8s;"></ellipse><ellipse class="ufo1-rock6 fillCls9" cx="140.452" cy="110.349" rx="4.34337" ry="1.6765" transform="rotate(-15 140.452 110.349)" fill="rgba(153,153,153,0)" style="animation-duration: 1.8s;"></ellipse><path class="ufo1-rock2 fillCls9" d="M17.4855 44.809C16.7887 46.2497 17.4855 48.9071 17.4855 48.9071C17.4855 48.9071 20.9633 50.6702 23.3532 51.3287C25.8675 52.0215 29.9661 52.2601 29.9661 52.2601C29.9661 52.2601 32.4795 49.6012 32.2014 47.6031C32.0459 46.4858 26.7816 42.7846 24.0052 42.2011C20.944 41.5577 18.1159 43.5053 17.4855 44.809Z" fill="rgba(153,153,153,0)" stroke-width="2px" style="animation-duration: 1.8s;"></path></svg>