<svg width="150" height="150" viewBox="0 0 150 150" fill="none" xmlns="http://www.w3.org/2000/svg" style="width: 200px; height: 200px; transform: rotateY(180deg);"><style>
     .working9-blob1 {animation:working9-blob1 4.5s infinite ease-out; opacity: 0;}
     .working9-blob2 {animation:working9-blob2 4.5s 1s infinite ease-out; opacity: 0;}
     .working9-blob3 {animation:working9-blob3 4.5s 2s infinite ease-out; opacity: 0;}
     .working9-blob4 {animation:working9-blob4 4.5s 3s infinite ease-out; opacity: 0;}
     .working9-blob5 {animation:working9-blob5 4.5s 4s infinite ease-out; opacity: 0;}
     .working9-blob6 {animation:working9-blob6 4.5s 5s infinite ease-out; opacity: 0;}
     .working9-blob7 {animation:working9-blob7 4.5s 6s infinite ease-out; opacity: 0;}
     .working9-blob8 {animation:working9-blob8 4.5s 7s infinite ease-out; opacity: 0;}
     .working9-blob9 {animation:working9-blob2 4.5s 1s infinite ease-out; opacity: 0;}
     .working9-blob10 {animation:working9-blob3 4.5s 3s infinite ease-out; opacity: 0;}
     .working9-blob11 {animation:working9-blob4 4.5s 5s infinite ease-out; opacity: 0;}
     .working9-blob12 {animation:working9-blob5 4.5s 7s infinite ease-out; opacity: 0;}

     @keyframes working9-blob1 {
         0%{transform: translate3d(0, 0, 0); opacity: 0;}
         20%{opacity: 1;}
         60% {opacity: 0;}
         100%{transform: translate3d(40px, -60px, 0); opacity: 0;}
     }
     @keyframes working9-blob2 {
         0%{transform: translate3d(0, 0, 0); opacity: 0;}
         20%{opacity: 1;}
         60% {opacity: 0;}
         100%{transform: translate3d(30px, -60px, 0); opacity: 0;}
     }
     @keyframes working9-blob3 {
         0%{transform: translate3d(0, 0, 0); opacity: 0;}
         20%{opacity: 1;}
         60% {opacity: 0;}
         100%{transform: translate3d(20px, -60px, 0); opacity: 0;}
     }
     @keyframes working9-blob4 {
         0%{transform: translate3d(0, 0, 0); opacity: 0;}
         20%{opacity: 1;}
         60% {opacity: 0;}
         100%{transform: translate3d(10px, -60px, 0); opacity: 0;}
     }
     @keyframes working9-blob5 {
         0%{transform: translate3d(0, 0, 0); opacity: 0;}
         20%{opacity: 1;}
         60% {opacity: 0;}
         100%{transform: translate3d(0px, -60px, 0); opacity: 0;}
     }
     @keyframes working9-blob6 {
         0%{transform: translate3d(0, 0, 0); opacity: 0;}
         20%{opacity: 1;}
         60% {opacity: 0;}
         100%{transform: translate3d(-10px, -60px, 0); opacity: 0;}
     }
     @keyframes working9-blob7 {
         0%{transform: translate3d(0, 0, 0); opacity: 0;}
         20%{opacity: 1;}
         60% {opacity: 0;}
         100%{transform: translate3d(-20px, -60px, 0); opacity: 0;}
     }
     @keyframes working9-blob8 {
         0%{transform: translate3d(0, 0, 0); opacity: 0;}
         20%{opacity: 1;}
         60% {opacity: 0;}
         100%{transform: translate3d(-30px, -60px, 0); opacity: 0;}
     }
     
     @media (prefers-reduced-motion: reduce) {
         .working9-blob1, .working9-blob2, .working9-blob3, .working9-blob4, .working9-blob5, .working9-blob6, .working9-blob7, .working9-blob8, .working9-blob9, .working9-blob10, .working9-blob11, .working9-blob12 {
             animation: none;
         }
     }

    </style><path class="fillCls9" d="M96.4417 87.0459H95.7246V136.117H96.4417V87.0459Z" fill="rgba(127,22,127,1)" stroke-width="2px" style="animation-duration: 4.5s;"></path><path class="fillCls9" d="M24.9456 87.0459H24.2285V136.117H24.9456V87.0459Z" fill="rgba(127,22,127,1)" stroke-width="2px" style="animation-duration: 4.5s;"></path><path class="fillCls9" d="M143.651 87.0459H142.934V136.117H143.651V87.0459Z" fill="rgba(127,22,127,1)" stroke-width="2px" style="animation-duration: 4.5s;"></path><path class="fillCls9" d="M48.6328 85.9106H146.041C146.041 86.5161 145.8 87.0967 145.372 87.5248C144.944 87.9529 144.363 88.1934 143.758 88.1934H48.6328V85.9106Z" fill="rgba(127,22,127,1)" stroke-width="2px" style="animation-duration: 4.5s;"></path><path class="fillCls9" d="M143.663 88.1934H95.8438V96.5597H143.663V88.1934Z" fill="rgba(127,22,127,1)" stroke-width="2px" style="animation-duration: 4.5s;"></path><circle class="fillCls14 working9-blob12" cx="118.775" cy="61.6837" r="1.03432" fill="rgba(255,255,255,1)" stroke-width="2px" style="animation-duration: 4.5s;"></circle><circle class="fillCls14 working9-blob11" cx="120.399" cy="57.3417" r="0.693721" fill="rgba(255,255,255,1)" stroke-width="2px" style="animation-duration: 4.5s;"></circle><circle class="fillCls14 working9-blob10" cx="119.822" cy="60.5503" r="2.21831" fill="rgba(255,255,255,1)" stroke-width="2px" style="animation-duration: 4.5s;"></circle><circle class="fillCls14 working9-blob9" cx="120.431" cy="60.3737" r="1.72577" fill="rgba(255,255,255,1)" stroke-width="2px" style="animation-duration: 4.5s;"></circle><circle class="fillCls14 working9-blob8" cx="120.009" cy="62.0038" r="2.26897" fill="rgba(255,255,255,1)" stroke-width="2px" style="animation-duration: 4.5s;"></circle><circle class="fillCls13 working9-blob7" cx="119.601" cy="59.5993" r="2.26727" fill="rgba(255,255,255,1)" stroke-width="2px" style="animation-duration: 4.5s;"></circle><circle class="fillCls13 working9-blob6" cx="120.869" cy="61.455" r="2.23767" fill="rgba(255,255,255,1)" stroke-width="2px" style="animation-duration: 4.5s;"></circle><circle class="fillCls13 working9-blob5" cx="118.918" cy="59.97" r="1.98658" fill="rgba(255,255,255,1)" stroke-width="2px" style="animation-duration: 4.5s;"></circle><circle class="fillCls13 working9-blob4" cx="119.179" cy="58.2629" r="1.91525" fill="rgba(255,255,255,1)" stroke-width="2px" style="animation-duration: 4.5s;"></circle><circle class="fillCls13 working9-blob3" cx="119.077" cy="60.8242" r="2.67479" fill="rgba(255,255,255,1)" stroke-width="2px" style="animation-duration: 4.5s;"></circle><circle class="fillCls13 working9-blob2" cx="119.898" cy="60.057" r="2.46232" fill="rgba(255,255,255,1)" stroke-width="2px" style="animation-duration: 4.5s;"></circle><circle class="fillCls13 working9-blob1" cx="119.655" cy="60.9956" r="2.45016" fill="rgba(255,255,255,1)" stroke-width="2px" style="animation-duration: 4.5s;"></circle><path class="fillCls10" d="M93.9835 43.8164C93.9834 43.6135 94.0236 43.4126 94.1017 43.2253C94.1797 43.038 94.2941 42.868 94.4382 42.7252C94.5822 42.5823 94.7532 42.4694 94.9411 42.3929C95.1291 42.3165 95.3303 42.278 95.5332 42.2798H146.912L146.794 41.8857L147.687 42.3454C148.007 42.4365 148.289 42.6292 148.491 42.8945C148.692 43.1598 148.802 43.4833 148.803 43.8164L146.636 78.0163C146.634 78.2181 146.593 78.4176 146.514 78.6034C146.435 78.7892 146.321 78.9576 146.177 79.0991C146.033 79.2405 145.863 79.3523 145.675 79.4279C145.488 79.5035 145.288 79.5416 145.086 79.5398H93.3662C93.1644 79.5416 92.9642 79.5035 92.7771 79.4279C92.59 79.3523 92.4197 79.2405 92.2757 79.0991C92.1318 78.9576 92.0172 78.7892 91.9384 78.6034C91.8596 78.4176 91.8181 78.2181 91.8164 78.0163L93.9835 43.8164Z" fill="rgba(0,0,0,1)" stroke-width="2px" style="animation-duration: 4.5s;"></path><path class="fillCls9" d="M92.3544 79.5399H144.075C144.486 79.5399 144.88 79.3766 145.171 79.086C145.461 78.7954 145.624 78.4012 145.624 77.9902L147.805 43.3305C147.805 42.9195 147.641 42.5253 147.351 42.2347C147.06 41.944 146.666 41.7808 146.255 41.7808H94.5346C94.1236 41.7808 93.7294 41.944 93.4388 42.2347C93.1481 42.5253 92.9849 42.9195 92.9849 43.3305L90.8047 77.9902C90.8047 78.4012 90.968 78.7954 91.2586 79.086C91.5492 79.3766 91.9434 79.5399 92.3544 79.5399V79.5399Z" fill="rgba(127,22,127,1)" stroke-width="2px" style="animation-duration: 4.5s;"></path><path class="fillCls12" d="M94.6163 43.4092L92.4492 77.9112H143.999L146.179 43.4092H94.6163Z" fill="#EAF6F4" stroke-width="2px" style="animation-duration: 4.5s;"></path><path class="fillCls11" d="M112.121 84.7872C112.513 83.0606 112.805 81.3127 112.994 79.5522H123.643C123.499 81.094 123.284 82.8988 122.949 84.7872H112.121Z" fill="rgba(127,22,127,1)" stroke-width="2px" style="animation-duration: 4.5s;"></path><path class="fillCls10" d="M129.236 85.9106H104.723V85.2891C104.723 85.1592 104.775 85.0345 104.867 84.9426C104.958 84.8507 105.083 84.7991 105.213 84.7991H128.615C128.78 84.7991 128.938 84.8646 129.054 84.9812C129.171 85.0977 129.236 85.2558 129.236 85.4206V85.9106Z" fill="rgba(0,0,0,1)" stroke-width="2px" style="animation-duration: 4.5s;"></path><path class="fillCls8" d="M6.08362 106.181L1.21922 79.1219C1.18067 78.9117 1.18882 78.6955 1.24309 78.4888C1.29737 78.282 1.39643 78.0897 1.53327 77.9255C1.67012 77.7613 1.84139 77.6292 2.03496 77.5385C2.22854 77.4479 2.43969 77.4009 2.65344 77.4009H13.2547L15.9798 103.301L6.08362 106.181Z" fill="rgba(150,145,145,1)" stroke-width="2px" style="animation-duration: 4.5s;"></path><path class="fillCls8" d="M11.8329 100.42H35.629C36.385 100.42 37.1335 100.57 37.8318 100.859C38.5301 101.149 39.1643 101.573 39.6983 102.108C40.2323 102.644 40.6555 103.279 40.9437 103.978C41.2319 104.676 41.3795 105.425 41.3779 106.181V106.181H6.084C6.08243 105.425 6.22997 104.676 6.51817 103.978C6.80637 103.279 7.22958 102.644 7.76357 102.108C8.29756 101.573 8.93183 101.149 9.63009 100.859C10.3284 100.57 11.0769 100.42 11.8329 100.42V100.42Z" fill="rgba(150,145,145,1)" stroke-width="2px" style="animation-duration: 4.5s;"></path><path class="fillCls8" d="M38.9275 136.133L39.2741 136.109L37.2782 108.571H37.6367V105.882H6.09573V107.328L4.79297 136.109L5.15152 136.133L5.71326 123.691H22.6969V136.121H23.0554V123.691H38.0192L38.9275 136.133ZM37.2782 106.241V108.213H37.2543L37.1108 106.241H37.2782ZM6.45428 107.34L6.50209 106.241H22.6969V108.213H6.45428V107.34ZM23.0554 106.241H36.7523L36.8957 108.213H23.0554V106.241ZM5.72521 123.332L6.39452 108.571H22.6969V123.332H5.72521ZM23.0554 123.332V108.571H36.9196L37.9953 123.332H23.0554Z" fill="rgba(150,145,145,1)" stroke-width="2px" style="animation-duration: 4.5s;"></path><path class="fillCls2" d="M60.896 136.001H73.0391L74.1626 115.826C69.2862 106.085 51.2628 90.5596 51.2628 90.5596C51.2628 90.5596 19.8054 99.643 22.3034 99.9059C24.8013 100.169 42.0479 101.878 42.0479 101.878C42.0479 101.878 45.729 107.531 48.6334 112.276C51.5377 117.021 60.9199 121.885 60.9199 121.885C59.9637 125.196 60.2745 130.837 60.896 136.001Z" fill="rgba(54,54,65,1)" stroke-width="2px" style="animation-duration: 4.5s;"></path><path class="fillCls8" d="M52.0864 48.011C51.7398 43.9235 52.3135 42.4056 52.4569 42.0829L52.0745 41.6885H51.2737L51.0585 42.0231C51.0585 42.0231 50.2578 43.3378 50.6522 48.011C50.8434 50.3177 51.7518 50.3416 52.6123 49.7919C52.3493 49.4811 52.1701 48.9313 52.0864 48.011Z" fill="rgba(150,145,145,1)" stroke-width="2px" style="animation-duration: 4.5s;"></path><path class="fillCls8" d="M53.0308 43.3258C53.0308 43.3258 51.25 40.6844 50.9512 42.3935C50.9512 42.3935 51.0468 41.4733 51.8356 41.4254C52.1583 41.4015 52.971 41.294 53.5686 41.6884L53.0308 43.3258Z" fill="rgba(150,145,145,1)" stroke-width="2px" style="animation-duration: 4.5s;"></path><path class="fillCls8" d="M51.2637 49.8756C51.2637 49.8756 51.6939 50.3896 53.176 50.0908C54.658 49.792 53.176 48.9912 53.176 48.9912C53.176 48.9912 52.2557 50.5928 51.2637 49.8756Z" fill="rgba(150,145,145,1)" stroke-width="2px" style="animation-duration: 4.5s;"></path><path class="fillCls7" d="M41.4493 17.9163C38.9035 13.8526 35.2701 17.6175 34.4574 18.5617C35.1506 17.7011 37.6247 14.4144 34.9355 13.9004C32.9634 13.518 29.4376 16.5657 27.1668 18.8127C28.0457 17.087 29.3092 15.5863 30.8599 14.4263C28.8161 15.0239 26.8202 17.7489 25.6967 19.5537C26.0433 18.4541 26.0791 17.1513 24.37 17.0557C22.4099 16.9482 22.0036 19.7449 22.0275 22.207C21.5972 20.474 21.3821 18.1792 21.3821 18.1792C21.2147 20.2708 21.6091 22.6133 21.9199 24.0715C21.2267 22.7568 20.9876 19.972 20.9876 19.972C20.4857 21.9919 21.1669 24.0954 21.8004 25.4579C21.4299 25.2667 20.9637 25.195 20.7725 25.8045C20.3183 27.2148 22.135 28.4578 23.3302 29.1032C22.9836 31.6251 24.7644 33.7047 24.7644 33.7047C24.0951 32.1151 24.0473 31.0155 24.2146 30.2984C24.1788 31.2067 24.3342 32.7724 25.6608 33.8362C27.6329 35.4138 28.2305 32.127 28.2305 32.127L34.1467 26.4021L38.8198 24.0595C38.8198 24.0595 44.3536 22.5177 41.4493 17.9163Z" fill="rgba(98,44,28,1)" stroke-width="2px" style="animation-duration: 4.5s;"></path><path class="fillCls3" d="M38.5464 41.9632L35.1998 43.3496L27.3116 41.4373L27.0965 41.1027L26.224 40.7441L26.0566 41.7003L29.5107 45.4054L32.6302 45.8237L36.156 46.3018L38.5464 44.8914L39.5503 43.6723L39.9089 42.6206L39.5144 41.76L39.0125 41.7122L38.5464 41.9632Z" fill="rgba(131,0,3,1)" stroke-width="2px" style="animation-duration: 4.5s;"></path><path class="fillCls5" d="M38.3675 22.3862C38.3675 22.3862 40.9132 31.9477 39.4551 34.5771C38.2001 36.8719 36.7779 36.9914 36.7779 36.9914C36.7779 36.9914 37.4233 43.8398 38.5467 44.8916L35.8576 48.4413L28.8896 46.2063L25.8658 42.1307C25.8658 42.1307 28.8896 41.079 27.8379 35.4138L27.312 32.2585C27.312 32.2585 24.1447 30.4179 25.8658 28.0395C27.5869 25.661 28.3637 28.5654 28.3637 28.5654L29.547 28.0395C29.547 28.0395 30.7302 27.3821 29.8099 24.8842C29.8099 24.8842 31.9134 22.9121 33.4911 23.0436C35.0687 23.1751 37.0288 23.9997 37.8416 23.7009C37.8416 23.7009 36.0966 23.5097 35.2002 22.5775C35.2002 22.5775 37.4472 23.3065 38.3675 22.3862Z" fill="rgba(241,202,192,1)" stroke-width="2px" style="animation-duration: 4.5s;"></path><path class="fillCls6" d="M38.5462 44.8916C37.4227 43.8398 36.7773 36.9914 36.7773 36.9914C36.7773 36.9914 35.3698 37.1289 34.1479 36.9914C33.5917 36.9288 32.73 36.7257 31.9437 36.3896C30.4474 35.7502 29.1091 34.2839 27.5712 33.7524V33.7524L27.8373 35.4137C28.8891 41.0789 25.8652 42.1307 25.8652 42.1307L28.8891 46.2063L35.857 48.4413L38.5462 44.8916Z" fill="#FADCD5" stroke-width="2px" style="animation-duration: 4.5s;"></path><path class="fillCls3" d="M25.0262 43.0871C25.0262 43.0871 23.8669 43.8998 21.2494 44.1508C19.1937 44.354 17.4727 45.9316 17.4727 45.9316L31.4922 53.9752L36.9542 52.9593L41.4362 49.2303L43.4441 45.4057L40.5995 44.3659L34.6953 45.848L34.1694 47.9037L32.9623 46.0153L25.3489 43.0034L25.0262 43.0871Z" fill="rgba(131,0,3,1)" stroke-width="2px" style="animation-duration: 4.5s;"></path><path class="fillCls5" d="M51.3462 79.9943C51.3462 79.9943 52.0275 83.7233 55.135 82.1217C58.2424 80.5202 59.5572 77.3051 59.4257 73.2176C59.2942 69.1301 59.091 56.963 60.4057 54.5966C61.7204 52.2301 55.4696 53.0787 55.4696 53.0787C55.4696 53.0787 54.6569 59.1861 53.7605 63.0824C52.2665 69.5723 50.9518 73.2534 51.3462 79.9943Z" fill="rgba(241,202,192,1)" stroke-width="2px" style="animation-duration: 4.5s;"></path><path class="fillCls2" d="M51.7637 136.12C52.3972 123.26 54.0824 89.3765 54.3573 86.6157C54.68 83.1855 54.0943 77.1378 50.4729 76.6119C46.8515 76.086 9.08357 88.516 9.08357 88.516C9.08357 88.516 1.26704 103.982 17.4738 102.667C33.6805 101.352 39.023 97.0138 39.023 97.0138C39.023 97.0138 33.9554 108.595 38.1625 119.185C40.6365 125.411 41.497 131.853 41.7839 136.12H51.7637Z" fill="rgba(54,54,65,1)" stroke-width="2px" style="animation-duration: 4.5s;"></path><path class="fillCls1" d="M52.6964 67.5284C51.8837 65.891 48.8718 60.1182 47.2703 53.3535C45.3341 45.2023 43.4457 45.4055 43.4457 45.4055L38.5454 48.4891C30.1791 51.3456 24.1912 46.517 22.5299 45.4055C22.2492 45.2247 21.9579 45.061 21.6574 44.9155C21.1198 44.661 20.535 44.521 19.9404 44.5046C19.3458 44.4881 18.7542 44.5955 18.2033 44.8198L16.4105 45.5489C13.2433 46.3616 12.0003 60.0226 11.4744 65.1141C10.9485 70.2056 6.82514 81.2611 5.76142 83.9742C4.69771 86.6873 7.69762 87.1414 7.69762 87.1414V88.8027C7.61396 90.476 10.59 90.5597 10.59 90.5597V88.8864C10.5063 84.8586 22.506 79.1456 22.506 79.1456L23.4861 79.6835L47.2703 75.4644L51.3578 76.8748C51.3578 75.2732 51.573 71.9028 52.6964 67.5284Z" fill="rgba(131,131,131,1)" stroke-width="2px" style="animation-duration: 4.5s;"></path><path class="fillCls4" d="M38.5458 41.9635C38.5458 41.9635 39.7768 41.6289 39.4183 42.4894C39.0597 43.3499 34.6973 45.8479 34.6973 45.8479C34.6973 45.8479 36.2869 48.2502 36.1912 50.1506C36.1912 50.1506 40.3027 46.804 41.0557 44.3658C41.0557 44.3658 40.5059 42.1548 39.5139 41.7603C39.3509 41.6922 39.1711 41.6752 38.9982 41.7115C38.8254 41.7478 38.6676 41.8356 38.5458 41.9635V41.9635Z" fill="rgba(189,3,6,1)" stroke-width="2px" style="animation-duration: 4.5s;"></path><path class="fillCls8" d="M53.3901 40.0035H62.2464C62.3954 40.0035 62.5383 40.0627 62.6436 40.1681C62.749 40.2734 62.8082 40.4163 62.8082 40.5653V53.8558C62.8082 53.9667 62.7641 54.0731 62.6857 54.1516C62.6072 54.23 62.5008 54.2741 62.3899 54.2741H53.2347C53.1238 54.2741 53.0174 54.23 52.9389 54.1516C52.8605 54.0731 52.8164 53.9667 52.8164 53.8558V40.5653C52.8164 40.4905 52.8313 40.4165 52.8603 40.3475C52.8893 40.2786 52.9317 40.2161 52.9851 40.1638C53.0386 40.1115 53.1019 40.0703 53.1715 40.0428C53.241 40.0153 53.3153 40.002 53.3901 40.0035V40.0035Z" fill="rgba(150,145,145,1)" stroke-width="2px" style="animation-duration: 4.5s;"></path><path class="fillCls5" d="M63.3699 42.6565L61.0035 41.3896C61.0035 41.3896 57.2147 42.4295 56.8203 42.3578C56.8203 42.3578 57.2864 44.3298 60.2744 43.7442L62.1389 44.031L59.7485 44.3657C59.7485 44.3657 57.0833 45.1425 56.8203 45.0708C56.8203 45.0708 56.9876 46.8636 59.8202 46.3019C59.8202 46.3019 57.645 46.9473 57.155 46.9473C57.155 46.9473 57.0474 48.752 59.39 48.5966L58.4816 48.8954C58.1937 48.9792 57.9389 49.1505 57.7526 49.3855C57.4896 49.7321 57.3582 50.2221 58.4697 50.4372C59.2107 50.5687 60.131 50.5567 60.9318 50.5926L62.8441 50.6643L62.8202 51.7758C62.8202 51.7758 64.6607 50.2938 64.2066 49.003L64.0154 48.5966L64.0512 48.5727C64.1793 48.4642 64.2782 48.3253 64.3387 48.1687C64.3993 48.0121 64.4196 47.8428 64.3978 47.6763L64.2783 46.5887L64.1588 46.3019L64.35 45.4174C64.3864 45.2509 64.3871 45.0785 64.3521 44.9116C64.3171 44.7447 64.2471 44.5872 64.1468 44.4493L63.86 44.031L63.8958 43.6007C63.9074 43.4096 63.864 43.2191 63.7708 43.0518C63.6776 42.8845 63.5385 42.7474 63.3699 42.6565V42.6565Z" fill="rgba(241,202,192,1)" stroke-width="2px" style="animation-duration: 4.5s;"></path><path class="fillCls5" d="M10.5901 90.56C10.5901 90.56 10.9964 91.5161 12.5621 91.8149C17.4743 92.7352 38.2945 82.4685 42.0474 79.5045L43.4458 78.7157C43.4458 78.7157 44.8083 79.8989 47.4377 78.7157L49.4815 79.0384C49.4815 79.0384 50.6049 80.2335 52.2902 80.2933L50.4496 78.2973L49.3978 77.5683L51.5491 77.7954L53.3658 79.1101L53.2941 77.4607L50.7962 74.6401H48.6329L47.7126 74.2696C47.5239 74.1979 47.3156 74.1979 47.1269 74.2696L42.9677 75.8233C42.9677 75.8233 34.6253 77.2934 28.5896 78.2495C26.0438 78.6559 22.5061 79.1459 22.5061 79.1459C16.1716 81.5363 8.28334 86.09 10.5901 90.56Z" fill="rgba(241,202,192,1)" stroke-width="2px" style="animation-duration: 4.5s;"></path><path class="fillCls4" d="M27.0953 41.103C27.0953 41.103 26.187 40.0871 25.8643 40.613C25.5416 41.1389 24.6691 42.0233 24.0357 42.7165C23.8878 42.8811 23.8101 43.0968 23.8191 43.3179C23.828 43.5389 23.9229 43.7477 24.0835 43.8998C25.5296 45.2384 29.1989 48.6088 31.4936 50.3538C31.4936 50.3538 31.4578 45.4774 32.9637 46.0152C32.9637 46.0152 26.8444 42.7165 26.4499 41.1389L27.0953 41.103Z" fill="rgba(189,3,6,1)" stroke-width="2px" style="animation-duration: 4.5s;"></path></svg>